HIERARCHY
ROOT hip
{
  OFFSET 0 0 0
  CHANNELS 6 Xposition Yposition Zposition Zrotation Yrotation Xrotation
  JOINT abdomen
  {
    OFFSET 0 20.6881 -0.73152
    CHANNELS 3 Zrotation Xrotation Yrotation
    JOINT chest
    {
      OFFSET 0 11.7043 -0.48768
      CHANNELS 3 Zrotation Xrotation Yrotation
      JOINT neck
      {
        OFFSET 0 22.1894 -2.19456
        CHANNELS 3 Zrotation Xrotation Yrotation
        JOINT head
        {
          OFFSET -0.24384 7.07133 1.2192
          CHANNELS 3 Zrotation Xrotation Yrotation
          JOINT leftEye
          {
            OFFSET 4.14528 8.04674 8.04672
            CHANNELS 3 Zrotation Xrotation Yrotation
            End Site
            {
              OFFSET 1 0 0
            }
          }
          JOINT rightEye
          {
            OFFSET -3.6576 8.04674 8.04672
            CHANNELS 3 Zrotation Xrotation Yrotation
            End Site
            {
              OFFSET 1 0 0
            }
          }
        }
      }
      JOINT rCollar
      {
        OFFSET -2.68224 19.2634 -4.8768
        CHANNELS 3 Zrotation Xrotation Yrotation
        JOINT rShldr
        {
          OFFSET -8.77824 -1.95073 1.46304
          CHANNELS 3 Zrotation Xrotation Yrotation
          JOINT rForeArm
          {
            OFFSET -28.1742 -1.7115 0.48768
            CHANNELS 3 Zrotation Xrotation Yrotation
            JOINT rHand
            {
              OFFSET -22.5879 0.773209 7.07136
              CHANNELS 3 Zrotation Xrotation Yrotation
              JOINT rThumb1
              {
                OFFSET -1.2192 -0.487915 3.41376
                CHANNELS 3 Zrotation Xrotation Yrotation
                JOINT rThumb2
                {
                  OFFSET -3.37035 -0.52449 3.41376
                  CHANNELS 3 Zrotation Xrotation Yrotation
                  End Site
                  {
                    OFFSET -1.78271 -1.18214 1.43049
                  }
                }
              }
              JOINT rIndex1
              {
                OFFSET -7.75947 0.938293 5.60832
                CHANNELS 3 Zrotation Xrotation Yrotation
                JOINT rIndex2
                {
                  OFFSET -2.54057 -0.884171 1.56538
                  CHANNELS 3 Zrotation Xrotation Yrotation
                  End Site
                  {
                    OFFSET -1.62519 -0.234802 1.16502
                  }
                }
              }
              JOINT rMid1
              {
                OFFSET -8.24714 1.18213 3.41376
                CHANNELS 3 Zrotation Xrotation Yrotation
                JOINT rMid2
                {
                  OFFSET -3.10165 -0.590103 1.0647
                  CHANNELS 3 Zrotation Xrotation Yrotation
                  End Site
                  {
                    OFFSET -2.48547 -0.328903 0.83742
                  }
                }
              }
              JOINT rRing1
              {
                OFFSET -8.82822 0.546677 1.51678
                CHANNELS 3 Zrotation Xrotation Yrotation
                JOINT rRing2
                {
                  OFFSET -2.60934 -0.819778 -0.0198488
                  CHANNELS 3 Zrotation Xrotation Yrotation
                  End Site
                  {
                    OFFSET -2.33842 -0.294052 0.168128
                  }
                }
              }
              JOINT rPinky1
              {
                OFFSET -8.27202 -0.0477905 -0.4584
                CHANNELS 3 Zrotation Xrotation Yrotation
                JOINT rPinky2
                {
                  OFFSET -1.82734 -0.647385 -0.700984
                  CHANNELS 3 Zrotation Xrotation Yrotation
                  End Site
                  {
                    OFFSET -1.69225 -0.51767 -0.607171
                  }
                }
              }
            }
          }
        }
      }
      JOINT lCollar
      {
        OFFSET 2.68224 19.2634 -4.8768
        CHANNELS 3 Zrotation Xrotation Yrotation
        JOINT lShldr
        {
          OFFSET 8.77824 -1.95073 1.46304
          CHANNELS 3 Zrotation Xrotation Yrotation
          JOINT lForeArm
          {
            OFFSET 28.1742 -1.7115 0.48768
            CHANNELS 3 Zrotation Xrotation Yrotation
            JOINT lHand
            {
              OFFSET 22.5879 0.773209 7.07136
              CHANNELS 3 Zrotation Xrotation Yrotation
              JOINT lThumb1
              {
                OFFSET 1.2192 -0.487915 3.41376
                CHANNELS 3 Zrotation Xrotation Yrotation
                JOINT lThumb2
                {
                  OFFSET 3.37035 -0.52449 3.41376
                  CHANNELS 3 Zrotation Xrotation Yrotation
                  End Site
                  {
                    OFFSET 1.78271 -1.18214 1.43049
                  }
                }
              }
              JOINT lIndex1
              {
                OFFSET 7.75947 0.938293 5.60832
                CHANNELS 3 Zrotation Xrotation Yrotation
                JOINT lIndex2
                {
                  OFFSET 2.54057 -0.884171 1.56538
                  CHANNELS 3 Zrotation Xrotation Yrotation
                  End Site
                  {
                    OFFSET 1.62519 -0.234802 1.16502
                  }
                }
              }
              JOINT lMid1
              {
                OFFSET 8.24714 1.18213 3.41376
                CHANNELS 3 Zrotation Xrotation Yrotation
                JOINT lMid2
                {
                  OFFSET 3.10165 -0.590103 1.0647
                  CHANNELS 3 Zrotation Xrotation Yrotation
                  End Site
                  {
                    OFFSET 2.48547 -0.328903 0.83742
                  }
                }
              }
              JOINT lRing1
              {
                OFFSET 8.82822 0.546677 1.51678
                CHANNELS 3 Zrotation Xrotation Yrotation
                JOINT lRing2
                {
                  OFFSET 2.60934 -0.819778 -0.0198488
                  CHANNELS 3 Zrotation Xrotation Yrotation
                  End Site
                  {
                    OFFSET 2.33842 -0.294052 0.168128
                  }
                }
              }
              JOINT lPinky1
              {
                OFFSET 8.27202 -0.0477905 -0.4584
                CHANNELS 3 Zrotation Xrotation Yrotation
                JOINT lPinky2
                {
                  OFFSET 1.82734 -0.647385 -0.700984
                  CHANNELS 3 Zrotation Xrotation Yrotation
                  End Site
                  {
                    OFFSET 1.69225 -0.51767 -0.607171
                  }
                }
              }
            }
          }
        }
      }
    }
  }
  JOINT rButtock
  {
    OFFSET -8.77824 4.35084 1.2192
    CHANNELS 3 Zrotation Xrotation Yrotation
    JOINT rThigh
    {
      OFFSET 0 -1.70687 -2.19456
      CHANNELS 3 Zrotation Xrotation Yrotation
      JOINT rShin
      {
        OFFSET 0 -36.8199 0.73152
        CHANNELS 3 Zrotation Xrotation Yrotation
        JOINT rFoot
        {
          OFFSET 0.73152 -45.1104 -5.12064
          CHANNELS 3 Zrotation Xrotation Yrotation
          End Site
          {
            OFFSET -1.1221 -3.69964 12.103
          }
        }
      }
    }
  }
  JOINT lButtock
  {
    OFFSET 8.77824 4.35084 1.2192
    CHANNELS 3 Zrotation Xrotation Yrotation
    JOINT lThigh
    {
      OFFSET 0 -1.70687 -2.19456
      CHANNELS 3 Zrotation Xrotation Yrotation
      JOINT lShin
      {
        OFFSET 0 -36.8199 0.73152
        CHANNELS 3 Zrotation Xrotation Yrotation
        JOINT lFoot
        {
          OFFSET -0.73152 -45.1104 -5.12064
          CHANNELS 3 Zrotation Xrotation Yrotation
          End Site
          {
            OFFSET 1.1221 -3.69964 12.103
          }
        }
      }
    }
  }
}
MOTION
Frames:	6
Frame Time:	0.03333
0.0 0.0 0.0 0.0 0.0 0.0 0.0 0.0 0.0 0.0 0.0 0.0 0.0 0.0 0.0 0.0 0.0 0.0 0.0 0.0 0.0 0.0 0.0 0.0 0.0 0.0 0.0 0.0 0.0 0.0 0.0 0.0 0.0 0.0 0.0 0.0 0.0 0.0 0.0 0.0 0.0 0.0 0.0 0.0 0.0 0.0 0.0 0.0 0.0 0.0 0.0 0.0 0.0 0.0 0.0 0.0 0.0 0.0 0.0 0.0 0.0 0.0 0.0 0.0 0.0 0.0 0.0 0.0 0.0 0.0 0.0 0.0 0.0 0.0 0.0 0.0 0.0 0.0 0.0 0.0 0.0 0.0 0.0 0.0 0.0 0.0 0.0 0.0 0.0 0.0 0.0 0.0 0.0 0.0 0.0 0.0 0.0 0.0 0.0 0.0 0.0 0.0 0.0 0.0 0.0 0.0 0.0 0.0 0.0 0.0 0.0 0.0 0.0 0.0 0.0 0.0 0.0 0.0 0.0 0.0 0.0 0.0 0.0 0.0 0.0 0.0 0.0 0.0 0.0 0.0 0.0 0.0
0.173 66.1962 -0.3376 -0.139776 -36.695173 -1.834883 0.17121 6.036763 -6.16984 3.119195 6.387684 -11.003146 -4.964115 -3.730298 -135.33131 12.407874 -35.852156 11.346871 -29.480506 -8.748703 32.423707 -35.654153 -23.020464 64.686493 -92.083897 -82.228343 157.787141 -149.768044 35.043143 151.529064 -8.851747 -27.713395 10.365423 -177.784579 43.397411 -85.510709 9.658442 -14.086077 83.255168 143.242045 33.170653 -87.893065 71.467447 57.486151 -51.478765 -21.99926 -11.588658 -131.648553 169.433267 11.688272 -111.942724 -9.751757 5.780509 -0.219012 -96.232653 7.018856 -85.139291 -146.913748 -25.186528 -179.266128 60.437859 1.694318 -86.197054 -157.737902 63.197679 151.328096 -91.982493 -11.095485 -3.343475 -119.03575 -85.592687 -117.831238 179.722942 -37.731504 26.341544 -0.784003 27.175928 68.082844 -2.915026 -47.163876 -37.23376 -7.401222 -81.409339 55.941103 172.440203 11.385618 -32.2091 165.456135 -23.906855 -40.843755 -79.941242 21.641934 -130.842769 -62.182794 -27.404534 -144.037428 -89.166593 25.671761 104.772052 131.707018 -41.653225 -143.975082 -38.370812 -24.175632 6.441154 -76.56024 56.063325 112.616391 48.860736 26.377543 102.357806 -11.608726 52.261004 156.370266 5.165113 -0.07689 100.462522 -73.606924 13.825699 99.797139 2.54365 28.808103 175.668154 -1.388466 28.24203 -9.676603 -3.981205 -2.158326 -96.140779 -76.246168 -10.779663 93.004802
1.3515 64.23440000000001 -2.4431000000000003 -134.8151 -72.763871 141.872439 12.313332 16.790894 68.072824 -16.957849 -0.931784 -64.285859 -15.809856 23.742108 -55.27549 35.167926 9.449772 71.376713 -3.002845 -2.009218 67.566634 -6.067254 -2.286102 41.261838 19.613076 -64.522844 2.528962 -116.170875 -31.977858 -107.333726 4.211697 28.072206 -145.225984 -163.290727 3.718841 128.599895 -143.893645 -1.673896 80.585306 109.172776 -74.080188 33.916937 -14.367068 12.470501 11.324437 -173.839208 8.30574 80.155741 -23.343883 0.233188 48.265949 1.497761 -28.842062 -78.338258 47.160772 -43.347629 23.81883 -95.455698 51.3336 59.65911 -139.224648 25.24105 -128.508173 -58.267962 37.711255 -154.979697 15.512589 -40.041338 21.629623 -67.644049 -8.623133 -12.518393 5.385358 33.658976 -64.793846 3.098731 23.790368 5.224018 2.881616 -2.07767 6.507945 33.559923 -9.579733 -78.237626 160.513389 12.48222 -115.296625 -160.789243 -45.483679 -139.76725 118.702899 -72.866717 -177.259946 -31.498408 41.568542 -27.914656 -108.620856 -89.669629 -135.901352 -77.380471 24.90064 80.991945 177.011946 -5.454357 -158.436117 -0.941926 -30.735011 -70.349929 60.488954 32.581739 37.162412 -88.338606 12.095927 -7.985426 55.25204 45.832707 169.771706 -176.441292 7.144445 -100.345816 -153.878675 71.26163 -19.818655 -156.697914 1.146889 -88.924075 -78.445818 1.044661 92.398565 -98.486251 -29.766624 -11.704654
2.6231 59.209500000000006 -5.3818 -134.581512 -65.106815 140.374355 18.491803 27.811514 31.745504 -22.896247 -18.094579 -3.202772 11.546976 35.998819 -167.669772 8.793336 36.887341 168.828606 -25.09074 -11.287399 47.890869 -16.680694 -5.434892 35.879495 -138.659185 -29.232905 -165.022537 -60.652501 20.736334 6.632919 -179.241287 17.670288 -73.867786 -11.210215 -12.198385 -9.059963 -0.712872 9.414567 19.674574 -3.005811 -42.360729 -39.999763 -171.38282 -3.506373 133.189298 174.29545 14.210537 116.33206 -105.030573 -23.251109 134.732913 103.883468 -19.563926 -29.26206 97.698399 -65.468805 136.438444 115.715109 32.826778 -124.547921 -144.435431 -1.935716 -96.838674 -43.982141 -0.300705 101.053452 4.071416 -24.52063 -27.652386 -45.221915 -3.274175 -32.566029 -162.146413 6.574807 -107.241024 -171.215332 3.166298 -146.959975 -79.54503 -50.196306 -11.511394 145.769732 -39.927611 -105.469289 120.54453 32.975589 -93.086671 29.876554 34.961132 -44.858545 -17.161921 0.785621 -13.638526 10.404205 4.210937 18.414335 -94.159095 -85.813141 -104.715326 156.585864 -33.205649 172.346299 -6.256459 33.934092 -8.816489 6.799994 34.232232 14.665598 52.969464 39.749331 51.176641 -67.779621 24.852985 140.068534 -32.129973 -51.021155 -102.553983 -87.32707 -14.765487 -147.677699 73.552835 13.404455 13.782145 -14.757118 -65.927986 -155.632655 88.137774 -75.898019 43.648376 -95.664097 -36.186633 165.371106
3.2914 58.688399999999994 -6.041300000000001 -141.424559 -69.109024 147.775262 3.382518 19.018821 174.821964 -6.505386 19.612124 -134.027531 30.221732 23.672285 104.235992 -23.456894 29.331852 -100.851242 -12.98215 -0.321395 2.824193 5.813932 2.075399 39.262895 -101.582604 -55.593578 -127.492441 -52.825514 -8.955297 -29.691815 -15.923759 -2.346379 -141.894896 -168.908308 -5.856515 140.322158 -169.362449 2.879968 81.312536 148.343322 -3.572762 75.153945 -176.620867 -81.225078 167.80464 -170.270738 26.203408 154.482719 64.146058 74.246367 -29.572076 149.541569 -28.335297 -159.245094 152.38958 -19.683594 172.842957 143.107221 -16.522668 -163.577194 -59.250921 -10.674884 -55.838385 -113.934118 -36.126625 -100.214559 -33.509574 -29.39135 -42.500109 -45.715754 -14.563083 -22.81592 8.272307 19.869963 -40.150706 -1.134145 16.332364 -2.224006 -6.68238 40.619399 -9.334965 68.059394 28.850604 3.454728 2.935631 29.523515 0.300911 -3.166976 18.97684 -33.422906 147.207981 -35.559268 -133.084605 162.034319 2.551902 -72.065832 -11.628359 25.608881 6.248255 110.759225 38.056391 -65.169427 117.563563 -29.486115 119.451741 -69.752243 -69.177734 -29.494213 -116.38728 57.092066 -45.757198 108.711874 55.360361 171.891169 34.023728 -38.983293 -47.051357 167.931133 33.435271 109.135516 26.859243 16.481195 -25.818969 78.336179 -35.820708 -41.69335 -74.921581 -47.325367 177.445634 25.193698 -67.072316 -87.593219
3.4086 57.41309999999999 -5.9085 -139.855042 -69.032071 147.69902 0.287 18.024717 43.858309 -6.310638 -20.289082 -13.800708 23.334723 36.06648 177.666374 26.94821 39.323108 171.804349 18.327129 2.796926 17.211436 38.592393 7.325822 20.723353 7.469182 46.470727 -8.473565 71.701378 34.289456 6.354599 -174.496755 32.499953 31.323419 -152.913322 16.532396 136.291715 -163.387804 15.406198 90.740413 -173.122317 3.363756 60.341282 -163.913885 0.412887 131.356515 -3.932592 -47.049765 -21.407589 -83.079324 -50.679414 -148.975208 -159.284505 -76.856112 108.302775 -40.117129 0.683964 28.771529 65.191768 -34.171794 -17.787454 4.975097 0.867215 -28.557817 176.767215 25.408188 -137.621734 112.097678 31.496622 -112.738001 28.982419 34.618565 4.827078 -1.559826 -39.112711 64.937535 -152.261425 -44.748028 -134.877362 149.370654 -43.883176 -81.216771 -15.606297 0.547889 -43.400885 117.93329 24.747624 -125.239006 71.418618 -64.599138 65.580076 -59.977776 -31.24438 -14.475007 -128.050785 53.372319 -175.043324 -6.018582 -0.478454 -0.255883 -61.327956 -29.522786 -65.11131 134.078114 8.404315 146.301865 -56.794862 -41.405534 -1.776907 -170.508124 75.517579 1.128706 121.896897 62.874886 -16.278532 -50.995225 19.377113 -76.359272 -151.484392 46.087582 -114.163815 131.249709 30.502546 23.405373 -99.207475 -36.253593 29.113622 67.648245 69.731473 26.237164 -147.638016 33.531991 72.210209
